<?xml version="1.0" encoding="UTF-8"?><svg id="a" xmlns="http://www.w3.org/2000/svg" viewBox="0 0 115.31 218.48"><defs><style>.b{fill:#eaa53e;}</style></defs><path class="b" d="M109.99,86.67s-3.39,17.78-10.93,32.41C79.44,46.55,84.24,0,84.24,0,84.24,0,19.56,31.84,1.46,107.47c-4.71,19.67,1.25,75.51,28.91,78.59,.16,.02,.96-16.11,9.06-27.18,10.19-13.94,17.36-14.04,22.65-12.3,3.31,1.09,7.45,16.86,5.55,26.09-6.96,33.83-26.41,43.31-26.26,43.81,2.1,7.09,52.41-4.33,64.63-40.01,18.3-42.03,3.99-89.79,3.99-89.79Z"/></svg>