<?xml version="1.0" encoding="UTF-8"?><svg id="a" xmlns="http://www.w3.org/2000/svg" viewBox="0 0 161.17 161.17"><defs><style>.b{fill:#fff;}</style></defs><polygon class="b" points="76.78 13.09 79.64 12.99 78.09 9.54 76.78 13.09"/><g><path class="b" d="M80.59,161.17C36.15,161.17,0,125.02,0,80.59S36.15,0,80.59,0s80.59,36.15,80.59,80.59-36.15,80.59-80.59,80.59ZM80.59,1.27C36.85,1.27,1.27,36.85,1.27,80.59s35.58,79.32,79.32,79.32,79.32-35.58,79.32-79.32S124.32,1.27,80.59,1.27Z"/><path class="b" d="M98.53,58.87c-1.4-2.98-3.17-3.76-3.18-3.77,0,0-.31-.05-.04,.11,.27,.16,1.76,1.73,2.76,3.88,1.02,2.17,1.66,4.59,2.06,6.48,.19,.07,.38,.15,.56,.22-.39-1.95-1.05-4.56-2.16-6.92Z"/><path class="b" d="M78.5,33.74h-.08s.05,0,.08,0h0Z"/><path class="b" d="M80.08,33.74h-.07s.05,0,.08,0c0,0,0,0,0,0Z"/><path class="b" d="M63.14,64.82c1.02-.37,1.84-.56,2.83-.84,.31-.09,.95-.18,1.29-.28,0-.32,.07-.89,.09-1.24,.02-.37,.02-.55,.05-.95,.16-2.2,.53-4.71,1.32-6.77,.34-.89,.63-1.44,1.05-1.96,.06-.06,.09-.1,.09-.12,.01-.06-.11-.04-.16-.03-.32,.09-.63,.21-1.05,.44-1.41,.79-3.02,2.05-3.85,3.93-1.12,2.48-1.51,5.59-1.66,7.82Z"/><path class="b" d="M58.26,67.11c.3-.16,.6-.3,.91-.45,.81-.5,1.4-.82,1.59-.91,.13-.08,1.3-.63,1.42-.68,.03-.48-.03-.01,.03-.6,.02-.22,.04-1.16,.07-1.39,.24-2.04,.71-4.46,1.61-6.49,.23-.5,.5-.96,.81-1.38,.06-.08,.11-.16,.17-.24,.3-.3-.08-.09-.15-.04-1.51,1-3.16,2.47-4.12,4.34-1.38,2.65-2.03,5.84-2.33,7.85Z"/><path class="b" d="M54.78,69.17c.25-.17,.51-.33,.76-.49,.57-.37,1.16-.73,1.78-1.07,.24-1.96,.89-5.64,2.5-8.76,.16-.3,.28-.52,.43-.75,.1-.15,.21-.3,.34-.48,.02-.1-.09,0-.21,.09-1.36,1.12-2.79,2.62-3.54,4.34-.96,2.22-1.58,4.67-1.95,6.56-.04,.19-.07,.37-.11,.55Z"/><path class="b" d="M98.07,59.08c1.02,2.17,1.67,4.59,2.06,6.48,.19,.07,.38,.15,.56,.22-.39-1.95-1.05-4.56-2.16-6.91-1.4-2.98-3.17-3.76-3.18-3.77,0,0-.31-.05-.04,.11,.27,.16,1.76,1.73,2.76,3.88Z"/><path class="b" d="M88.83,52.05c1.04,.65,3.6,1.82,4.89,4.73,.98,2.18,1.45,4.98,1.68,7.18,.2,.06,.4,.12,.6,.17-.22-2.25-.7-5.23-1.76-7.59-.98-2.17-3.04-3.74-4.8-4.52-1.15-.36-.78-.08-.61,.02Z"/><path class="b" d="M85.03,50.81c.91,.38,2.63,1.45,3.75,4.27,.86,2.16,1.17,5.23,1.27,7.69,.2,.03,.39,.06,.58,.1-.09-2.5-.41-5.68-1.32-8-.76-1.93-1.81-3.1-2.73-3.81-.51-.09-1.03-.18-1.55-.25Z"/><path class="b" d="M56.24,61.76c.13-.29,.33-.62,.56-.93-3.01,3.44-5.03,7.02-6.26,11.58,1.04-1.08,2.11-1.69,3.42-2.64,.33-1.98,.98-5.2,2.29-8.01Z"/><path class="b" d="M77.18,51c-.09,0-.21-.05-.35-.05-.41,.02-1.01,.12-1.61,1.52-.69,1.69-1.08,4.13-1.19,6.44-.04,.82-.05,1.65-.05,2.41,0,.38,0,.74,0,1.1,2.41-.45,4.31-.61,4.31-.61,0,0-.05-1.46-.05-2.29,0-.74,.15-7.17,.18-8.56-.37,.09-.89,.09-1.25,.05Z"/><path class="b" d="M73.49,51.61c-.06,0-.13,.01-.21,.02-.19,.02-.35,.05-.41,.08-.86,.22-2.23,.92-3.2,3.39-.53,1.37-.87,3.02-1.07,4.64-.04,.32-.09,1.56-.12,1.88-.09,.98-.14,.92-.18,1.77,1.31-.31,2.75-.55,4.07-.73h0c.18-.03,.45-.06,.63-.09,0-.39,.05-.62,.05-1.05,0-.78-.02-1.82,.02-2.66,.11-2.4,.38-4.9,1.14-6.78,.1-.26,.22-.49,.34-.7,.02-.04,.05-.08,.07-.12,.12-.16,.28-.34,.53-.47,.9-.45,1.52,.09,1.52,.09,0,0,.15,.08,.19-.22,.04-.3,0-.84,0-.84,0,0,.23-.1,.65-.17,.42-.07,.71-.07,.71-.07l.03,.61s.15-.17,1.99-.12c1.85,.04,2.3,.25,2.3,.25,0,0,.01,.25-.08,.25-.02,0-.06,0-.09,0-.18,0-.36-.02-.54-.02,.37,.19,.82,.65,1.26,1.72,.7,1.72,.97,4.41,1.08,6.75,.03,.6,.05,1.21,.07,1.8,0,.2,.03,.42,.03,.62,0,.24,0,.45,0,.68,.19,.01,.38,.03,.58,.04,.05-.4,.01-.49,0-.8,0-.21-.04-.54-.04-.76-.02-.52-.04-1.06-.06-1.6-.11-2.37-.38-5.09-1.13-6.94-.25-.65-.55-1.11-.84-1.45v-1.04s.43-.07,1.73,.26c.1,.03,.52,.14,.67,.19,.24,.08,.62,.18,1,.42,.14,.09,.11-.03,.05-.08-2.3-1.97-4.38-2.28-5.21-2.44-.13-.03-.28-.05-.42-.06l.52-.45h.22v-5.93c0-.21,.16-.38,.36-.38s.35,.17,.35,.38l.24,5.96c0,.08,.33,.23,.52,.3,.08,.08,.15,.28,.22,.41,.37,.11,.62,.25,.85,.37v-5.82c0-.21,.15-.38,.35-.38s.36,.17,.36,.38l.14,5.96c.22,.17,.18,.32,.53,.46-.03-.33-.06-4.43-.07-4.64,0-.21,.03-.43,.31-.47,.23-.04,.31,.37,.31,.37,0,0,.08,.77,.04,.96,.22-.09,.49-.4,.49-.4-.52-2.56-3.59-4.62-6.44-4.51-1.28,.05-1.96,.14-2.34,.22,.56-.18,1.39-.42,1.39-.42-.08-.64-.09-.9-.11-.97,.35-.04,.7-.07,1.06-.07,3.64,0,6.61,2.22,6.87,5.04,.2-.41,.34-.85,.4-1.3,0,0,.1-.23,.1-.35h0c0-.06,0-.12,0-.18,0-2.2-1.73-4.09-4.2-4.97-.33-.23-.87-.61-1.01-.88-.04-.13-.02-.16,.16-.36,.2-.23,.15-.49,.15-.74,0-.85-.46-1.43-.97-1.97-.12-.13-.22-.21-.21-.46,0,0,.02-.23,.15-.3,.21-.12,.18-.21,.18-.41s0-.26,.12-.44c.12-.17,.44-.14,.62-.5,.18-.36,.07-.45,.04-.77-.02-.25-.26-.28-.41-.4-.15-.12-.34-.72-.45-1.19-.12-.47-.21-.88-.44-1.29-.24-.41-.68-.77-.73-1.09-.05-.25-.68-.17-.74-.38-.02-.06,.55-.56,.5-.62-.15-.18-.68,.29-.88,.32-.15,.02-1.09-.49-1.33-.26-.1,.1,.53,.39,.44,.47-.29,.26-.44,.32-.32,.73,.12,.41,.29,.03,.06,.62-.24,.59-.21,1.09,0,1.41,.21,.32,.15,.15,.09,.44-.06,.29-.03,.47,.03,.74,.06,.27,.17,.21,.17,.38,0,.18,.06,.39,.12,.48,.06,.09,.12,.29,.29,.65,.08,.16,.14,.38,.18,.57-.02,.28-.05,.57-.2,.66-.85,.48-1.41,1.64-1.41,2.79,0,.35,.06,.4,.27,.69,.03,.04,.06,.08-.07,.29-.41,.27-.6,.52-.92,.97-.13,.06-.42,.18-.44,.19-.27,.12-.53,.26-.78,.41-1.65,1-2.78,2.52-2.71,4.23,.04,1.02,.94,2.58,1.31,3.03h0c.05,.1,.48,.48,.46,.94v2.99c-.48,.31-2.7,1.73-2.86,1.9-.16,.16-.21,.23-.01,.21,.52-.06,2.33-.47,2.78-.22-.06,.13-.18,.37-.18,.37,0,0-.28,.01-.56,.03Zm4.18-3.93c.06-.12,.31-.1,.49-.1,.27,0,.35-.23,.35-.23v-5.84c0-.2,.15-.37,.35-.37s.36,.17,.36,.37l.16,5.84,.15,.05,.18,.4c-1.05,0-2.06,.13-2.06,.13,0-.1-.01-.2,.02-.25Zm6.3-9.19c1.49,.79,2.68,2.08,3.1,3.75-.5-1.07-.98-1.73-1.75-2.46-2.06-2-5.47-2.28-8.05-1.97,1.99-.59,4.63-.41,6.7,.69Zm-8.06,4.35c0-.19,.16-.35,.35-.35s.36,.16,.36,.35l.09,5.36h-.02c-.23,.13-.78,.28-.76,.15,.04-.17,0-.12-.02-.4v-5.11Z"/><path class="b" d="M104.72,65.17c.51,1.12,1.39,3.49,1.39,3.49l.63,.43s-2.28-5.07-2.82-6.05c-.6-1.08-1.25-2.12-1.7-2.64-.23-.26,.03,.15,.03,.15,1.1,1.62,1.42,2.37,2.47,4.62Z"/><path class="b" d="M77.04,75.25c0-1.06-.44-1.72-1.35-1.72s-1.66,.86-1.66,1.91v5.97c1.09-.09,1.89-.08,3.01-.13v-6.03Z"/><path class="b" d="M70.41,81.66l-.02-5.62c0-1.04-.65-1.56-1.52-1.49-.87,.07-1.62,.97-1.62,2.02l.08,5.43c1.04-.14,2.02-.19,3.08-.34Z"/><path class="b" d="M99.54,82.94l-.33-5.17c-.02-1.08-.81-2.02-1.57-2.07-.76-.05-1.2,.63-1.18,1.7l.22,5.04c.97,.16,1.92,.31,2.85,.5Z"/><path class="b" d="M110.43,85.8l-.25-3.61c-.03-.87-.6-1.99-1.11-2.09-.51-.1-.81,.22-.78,1.11l.27,3.96c.64,.22,1.26,.4,1.88,.62Z"/><path class="b" d="M113.12,86.82c.3,.13,.6,.23,.9,.37l-.25-2.73c-.05-.87-.38-1.51-.61-1.64-.23-.14-.37,.18-.31,.93l.27,3.08Z"/><path class="b" d="M84.09,84.2c.24,0,.47,0,.71,.01-.24,0-.47,0-.71-.01Z"/><path class="b" d="M84.8,84.21c1.58,.04,3.14,.11,4.67,.21-1.53-.11-3.09-.18-4.67-.21Z"/><path class="b" d="M89.47,84.42h0Z"/><path class="b" d="M83.07,84.18c-.1,0-.2,0-.3,0,.44,0,.88,0,1.32,.01-.34,0-.68-.02-1.02-.02Z"/><path class="b" d="M91.1,84.55c-.52-.04-1.05-.09-1.57-.12,.53,.04,1.05,.08,1.57,.12Z"/><path class="b" d="M80.59,22.75c-31.89,0-57.83,25.94-57.83,57.83,0,8.72,1.89,17.1,5.62,24.9,3,6.28,7.07,11.92,12.11,16.77h0c10.83,10.42,25.07,16.16,40.11,16.16,17.92,0,30.86-8.69,35.59-12.43l.68-.54c1.3-1.01,2.64-2.06,3.81-3.19,11.44-11.01,17.75-25.81,17.75-41.68,0-31.89-25.94-57.83-57.83-57.83ZM23.81,80.59c0-31.31,25.47-56.77,56.77-56.77s56.77,25.47,56.77,56.77c0,10.05-2.59,19.65-7.43,28.11,0-1.14-.17-2.25-.17-3.53,0-10.11-16.28-18.76-38.67-20.62,20.51,1.75,36,9.64,37.05,19.34-4.26-9.65-23.69-16.46-45.62-16.46-5.26,0-13.19,.61-19.96,1.87-4.48,.84-8.25,1.88-11.39,3.12,1.48-1.03,2.77-1.89,3.14-2.02,11.98-4.23,23.98-4.56,34.94-4.33-11.6-.44-20.95-.92-35.78,3.99-.46,.15-1.65,.61-2.08,.79,.02-.29,.44-.3,.45-.58,8.09-3.52,18.88-6.1,30.93-6.08-.22,0-.43,0-.65,0-11.02,0-22.2,1.88-30.36,4.5-.04-1.37-.03-1.63,.28-2.32,.16-.35,1.97-.78,1.97-.78,9.42-2.89,21-4.47,32.21-3.97,10.46,.46,22.01,3,29.79,6.69,8.58,4.07,13.49,9.08,13.81,15.18-.27-5.25-3.71-9.59-9.84-13.27,.05-.29,.28-.87,.27-2.77-.32-4.2-2.94-7.99-7.62-11.39-1.87-1.36-4.03-2.6-6.43-3.69-7.05-3.21-16.15-5.14-26.08-5.14-11,0-20.98,2.37-28.28,6.22-2.16,1.14-4.09,2.41-5.74,3.79-3.8,3.17-6.12,6.91-6.44,10.93,.08,1.01,.22,1.89,.43,2.69-.04,.02-.08,.04-.11,.07-5.68,3.72-9.82,8.76-10.95,13.46-3.45-7.47-5.22-15.46-5.22-23.78Zm22.29-1.64c1.65-1.38,3.58-2.65,5.74-3.79,7.3-3.85,17.27-6.22,28.28-6.22,9.93,0,19.03,1.94,26.08,5.14,2.4,1.09,4.58,2.43,6.38,3.88,1.8,1.45,2.84,2.89,4.06,4.46,.84,1.65,1.98,3.61,2.3,6.32-.21,.14-.85-.13-.77,0-.02,.3,.02,.38,.11,.5-.47-.25-.95-.5-1.45-.75l-.12-1.29c-.07-.63-.28-1.34-.43-1.33-.15,.02-.19,.2-.12,.83l.15,1.49c.13,.08,.27,.15,.4,.23-.24-.12-.47-.24-.72-.36-3.31-1.57-7.1-2.91-11.24-3.97,.28,.07,.56,.14,.83,.22l-.33-4.46c-.05-1.07-.73-2.21-1.36-2.33-.64-.11-1.07,.39-1.02,1.46l.26,4.71c.5,.13,.98,.24,1.47,.36-3.85-.98-8.02-1.72-12.41-2.2,.16,.02,.32,.03,.47,.05l-.18-5.63c-.02-1.05-.74-1.96-1.6-2.01-.85-.05-1.53,.76-1.5,1.82l.1,5.51c.16,.01,.32,.03,.48,.05-1.83-.16-3.7-.27-5.6-.34,.18,0,.34,0,.53,.01l-.06-5.86c0-1.06-.54-1.86-1.46-1.86s-1.66,.73-1.66,1.75v5.89c.27,0,.51,.01,.77,.02-.43,0-.86-.02-1.3-.02-7.33-.04-13.61,.58-19.04,1.59,.28-.05,.55-.1,.83-.16v-5.3c-.01-1.12-.67-1.61-1.49-1.45-.81,.16-1.3,1.17-1.51,2.35l-.1,5.02c.43-.09,.81-.17,1.19-.25-1.97,.39-3.83,.84-5.57,1.32,.28-.08,.56-.16,.85-.24v-5.43c0-.87-.76-1.29-1.66-1.08-.89,.21-1.44,1.16-1.66,4.43v3.04h.04c-1.14,.35-2.24,.72-3.28,1.11,.08-.03,.15-.06,.23-.09v-5.03c0-.81-.53-1.4-1.19-1.32-.65,.08-1.18,1.02-1.18,4.45v2.82h.03c-1.07,.42-2.1,.87-3.06,1.31-.03,.01-.05,.03-.08,.04-.27-3.42-1.71-6.7,1.56-9.43Zm8.93,5.55c-.48,.14-.94,.27-1.4,.42,.46-.14,.92-.28,1.4-.42Zm-5.64,1.85c-.5,.19-1,.38-1.48,.57,.48-.2,.98-.39,1.48-.57Zm19.54,7.39s0-.05,0-.08c.01-.2,.1-.52,.55-.6,.79-.14,1.03,.36,1.07,.47,.03,1.62,.07,11.74,.1,21.83-.6,.04-1.2,.09-1.8,.15,0-9.58,.03-19.28,.07-21.67h.01s0-.04-.01-.1Zm9.95-.91c.09-.67,.5-.88,1.07-.9,.49-.02,.67,.46,.73,.68,.07,2,.14,12.19,.2,22.47-.63,0-1.25-.01-1.88-.01-.04-10.16-.07-20.23-.13-22.23Zm10.04-.28c.04-.16,.31-.63,1.22-.61,.32,0,.43,.25,.49,.56,.14,2.66,.26,13.02,.37,23.14-.61-.06-1.22-.11-1.83-.16-.07-10.17-.13-20.48-.24-22.93Zm9.57,1.31c.03-.4,.21-1.15,1.06-1.15,.38,0,.5,.4,.55,.72,.01,.12,.02,.24,.03,.36v.03c.22,3.13,.37,13.56,.55,23.13-.59-.1-1.19-.2-1.78-.29-.11-9.6-.22-19.82-.4-22.8Zm8.69,1.86s0,.01,0,0c.03-.54,1.34-1,1.44-.01,.31,3.72,.46,14.38,.67,23.04-.49-.12-.99-.23-1.48-.34-.18-8.78-.32-19.21-.63-22.68Zm7.25,2.2c0-.85,1.5-1.04,1.7-.01,.14,1.35,.66,7.83,1,22.98-.68-.21-1.35-.4-2.02-.6-.23-7.47-.29-18.64-.67-22.38Zm-58.18,19.44l.05-21.76c.26-.33,.69-.76,1.22-.76s.96,.43,.96,.96l.02,21.11c-.76,.14-1.5,.29-2.25,.44Zm-9.64,2.51c-.7,.22-1.39,.44-2.07,.68l.1-21.75c.09-.33,.52-.76,1.05-.76s.96,.43,.96,.96l-.04,20.87Zm73.76-19.01c.01,.1,0-.3,.01-.38,.15-.58,.9-.38,1.05,.13,.7,6.37,.6,14.04,.8,18.55-.42,.45-.86,.89-1.29,1.34-.26-4.93-.22-16.3-.57-19.63Zm4.06,2.77c.1-.36,.83-.61,1.02,.24,.23,1.65-.02,8.11,.15,11.33-.31,.41-.64,.8-.97,1.2-.15-3.29,.02-10.71-.2-12.77Zm2.46,2.9c.03-.54,.8-.68,.88,.29,.1,.94-.02,3.74,0,5.36-.31,.46-.62,.91-.94,1.35-.05-2.39,.06-7,.06-7Z"/><path class="b" d="M37.34,26.61c.06-.41-.06-.8-.35-1.15l-.02-.02c-.33-.39-.7-.58-1.12-.57-.42,.01-.85,.21-1.3,.59l-1.81,1.51,1.99,2.37,1.84-1.54c.45-.38,.7-.77,.77-1.18Z"/><polygon class="b" points="12.4 82.31 12.45 79.44 8.93 80.82 12.4 82.31"/><path class="b" d="M100.51,144.15c-.13-.46-.4-.78-.8-.98-.4-.2-.89-.22-1.45-.05-.56,.16-.95,.43-1.17,.8-.22,.37-.27,.79-.14,1.24v.03c.14,.46,.4,.78,.8,.97,.4,.19,.88,.2,1.44,.04,.56-.16,.95-.43,1.18-.8,.23-.37,.28-.78,.15-1.22v-.03Z"/><path class="b" d="M110.95,144.34c-.17-.38-.46-.6-.87-.67-.41-.07-.86,.01-1.35,.23-.49,.22-.84,.51-1.07,.86-.22,.35-.25,.71-.07,1.09v.03c.16,.33,.44,.55,.84,.65,.4,.1,.87,.04,1.39-.2,.53-.24,.88-.54,1.08-.9,.19-.36,.21-.72,.06-1.06v-.03Z"/><path class="b" d="M108.83,141.43c.15-.33,.15-.67,0-1.01v-.03c-.15-.3-.38-.5-.73-.63-.34-.12-.74-.08-1.18,.12-.44,.2-.74,.47-.87,.8-.14,.33-.14,.65,0,.95v.03c.17,.34,.42,.57,.77,.68,.35,.11,.74,.08,1.16-.12,.42-.19,.71-.46,.86-.79Z"/><path class="b" d="M133.62,41.84c.08,.43,.27,.84,.55,1.23,.28,.39,.6,.69,.98,.91,.38,.22,.77,.36,1.18,.41,.42,.05,.83,.02,1.26-.08,.42-.11,.82-.29,1.2-.56l.02-.02c.38-.27,.69-.59,.93-.96,.24-.37,.4-.76,.48-1.18,.08-.42,.08-.84,0-1.27-.09-.43-.27-.84-.54-1.22-.28-.39-.61-.7-.98-.92-.37-.22-.76-.35-1.18-.41-.41-.05-.83-.02-1.25,.08-.42,.11-.82,.29-1.2,.56l-.03,.02c-.38,.27-.68,.59-.93,.96-.24,.37-.4,.76-.48,1.18-.08,.42-.08,.84,0,1.27Z"/><path class="b" d="M152.39,50.45c-3.92-9.27-9.53-17.6-16.68-24.75-7.15-7.15-15.48-12.76-24.75-16.68-9.61-4.06-19.8-6.12-30.31-6.12s-20.71,2.06-30.31,6.12c-9.27,3.92-17.6,9.54-24.75,16.68-7.15,7.15-12.76,15.48-16.68,24.75-4.07,9.6-6.12,19.8-6.12,30.31s2.06,20.71,6.12,30.31c3.92,9.27,9.53,17.6,16.68,24.74,7.15,7.15,15.47,12.76,24.75,16.68,9.6,4.06,19.8,6.12,30.31,6.12s20.7-2.06,30.31-6.12c9.27-3.92,17.6-9.53,24.75-16.68,7.14-7.15,12.76-15.47,16.68-24.74,4.06-9.61,6.12-19.8,6.12-30.31s-2.06-20.7-6.12-30.31Zm.06,10.64l-5.26,6.48,6.45-1.56,.55,2.28-10.48,2.54-.48-1.96,5.43-6.69-6.66,1.61-.55-2.28,10.48-2.54,.51,2.13Zm-4.89-12.75l-5.56,2.52c-.8,.37-1.33,.83-1.56,1.39-.24,.56-.21,1.17,.1,1.83,.3,.66,.73,1.09,1.3,1.29,.56,.19,1.24,.11,2.02-.24l5.63-2.55,.98,2.16-5.54,2.51c-.75,.34-1.44,.53-2.09,.58-.64,.05-1.24-.03-1.77-.24-.54-.21-1.02-.53-1.45-.99-.42-.45-.79-1-1.08-1.66-.6-1.32-.71-2.52-.32-3.61,.39-1.09,1.3-1.96,2.75-2.62l5.61-2.55,.98,2.16Zm-9.83-12.88c.71,.12,1.39,.38,2.04,.78,.65,.4,1.21,.94,1.7,1.62,.48,.68,.81,1.38,.98,2.12,.17,.74,.2,1.46,.09,2.16-.11,.7-.36,1.37-.74,1.99-.38,.62-.89,1.16-1.51,1.6l-.03,.02c-.63,.45-1.3,.75-2.01,.91-.71,.16-1.43,.18-2.14,.06-.71-.12-1.39-.38-2.03-.78-.65-.4-1.21-.94-1.7-1.62-.48-.68-.81-1.38-.98-2.12-.17-.74-.2-1.46-.09-2.16,.11-.7,.36-1.37,.74-1.99,.38-.62,.89-1.15,1.52-1.6l.03-.02c.63-.45,1.3-.75,2.01-.91,.71-.16,1.43-.18,2.13-.06Zm-14.26-5.83c.27-.68,.66-1.3,1.2-1.86l.02-.02c.53-.56,1.13-.99,1.79-1.28,.66-.3,1.35-.46,2.06-.49,.71-.03,1.41,.09,2.11,.35,.7,.26,1.35,.68,1.96,1.25,.37,.35,.67,.69,.91,1.04,.25,.35,.44,.69,.59,1.03,.15,.34,.25,.68,.32,1.03,.07,.35,.1,.69,.11,1.04l-2.29,.22c-.04-.57-.15-1.08-.32-1.53-.17-.46-.45-.87-.84-1.25-.33-.31-.69-.54-1.09-.67-.4-.14-.81-.19-1.22-.16-.41,.03-.81,.14-1.21,.33-.39,.19-.75,.45-1.06,.79l-.02,.02c-.32,.34-.56,.71-.73,1.11-.17,.4-.26,.81-.28,1.22-.01,.41,.06,.81,.21,1.21,.16,.4,.4,.75,.74,1.07,.45,.42,.9,.7,1.37,.83,.46,.13,.98,.2,1.56,.21l.04,2.15c-.41,.02-.8,.02-1.18-.01-.38-.03-.76-.11-1.13-.23-.37-.12-.74-.29-1.11-.52-.37-.23-.74-.52-1.12-.88-.57-.54-1.01-1.15-1.3-1.83-.29-.68-.45-1.36-.46-2.06-.01-.7,.11-1.39,.38-2.08Zm-10.72-15.81l2.08,1.15-2.07,3.73,3.83,2.12,2.07-3.73,2.07,1.15-5.23,9.43-2.08-1.15,2.1-3.79-3.83-2.12-2.1,3.79-2.08-1.15,5.23-9.43Zm-14.71,.36v-.03c.26-.73,.62-1.37,1.09-1.92,.48-.55,1.03-.99,1.66-1.31,.63-.33,1.32-.52,2.06-.57,.75-.06,1.51,.04,2.3,.31,.48,.16,.9,.34,1.27,.56,.37,.21,.69,.44,.97,.68,.28,.24,.52,.51,.72,.8,.21,.29,.39,.59,.54,.9l-1.98,1.17c-.28-.49-.59-.91-.94-1.26-.34-.34-.78-.6-1.29-.77-.43-.14-.85-.19-1.28-.15-.42,.04-.81,.17-1.17,.37-.36,.2-.68,.47-.95,.81-.28,.34-.49,.72-.63,1.16v.03c-.16,.44-.22,.88-.21,1.31,.02,.44,.1,.85,.26,1.23,.16,.38,.39,.72,.7,1.01,.31,.29,.68,.51,1.12,.66,.58,.2,1.11,.25,1.59,.18,.47-.08,.97-.23,1.5-.47l.95,1.93c-.36,.19-.71,.36-1.07,.48-.36,.13-.73,.22-1.12,.27-.39,.05-.8,.05-1.23,0-.43-.05-.89-.16-1.38-.33-.75-.25-1.4-.62-1.95-1.11-.55-.49-.98-1.05-1.29-1.68-.31-.63-.49-1.31-.53-2.04-.05-.73,.05-1.46,.3-2.19Zm-10.66-7.28l4.88,.72c1.35,.2,2.33,.71,2.95,1.54,.52,.7,.71,1.56,.56,2.57v.03c-.13,.86-.45,1.54-.95,2.02-.5,.48-1.11,.8-1.83,.95l2.04,4.2-2.74-.4-1.78-3.75h-.03l-1.81-.27-.5,3.42-2.35-.35,1.58-10.67Zm-10.46-.17l2.19-.08,5,10.7-2.48,.09-1.07-2.38-4.56,.16-.9,2.45-2.42,.08,4.24-11.02Zm-7.74,.75l.44,2.06-5.65,1.21,.46,2.14,4.97-1.06,.44,2.06-4.97,1.06,.47,2.21,5.73-1.22,.44,2.07-8.02,1.71-2.25-10.55,7.94-1.7Zm-17.91,6.01c.21-.39,.49-.74,.87-1.05,.37-.31,.82-.57,1.34-.77,.74-.29,1.46-.44,2.16-.46,.7-.02,1.39,.08,2.07,.29l-.5,2.11c-.57-.13-1.1-.2-1.6-.21-.5-.01-.96,.07-1.39,.24-.43,.17-.72,.38-.87,.63-.15,.25-.18,.5-.08,.75v.03c.07,.16,.16,.29,.27,.39,.11,.1,.26,.16,.46,.19,.2,.03,.46,.04,.77,.01,.32-.02,.71-.06,1.19-.11,.56-.06,1.07-.09,1.54-.08,.46,.01,.88,.08,1.24,.21,.37,.13,.68,.32,.94,.59,.26,.26,.48,.61,.65,1.05v.03c.2,.5,.29,.98,.25,1.43-.03,.46-.15,.88-.38,1.27-.22,.39-.53,.74-.92,1.05-.4,.31-.87,.58-1.41,.79-.77,.3-1.57,.46-2.41,.48-.84,.02-1.67-.12-2.48-.43l.7-2.07c.6,.19,1.19,.31,1.76,.34,.57,.03,1.14-.06,1.72-.29,.46-.18,.78-.4,.97-.67,.19-.27,.23-.55,.11-.84v-.03c-.07-.14-.14-.26-.24-.35-.1-.09-.24-.15-.42-.19-.19-.04-.43-.05-.73-.05-.3,0-.68,.04-1.15,.1-.56,.07-1.07,.11-1.54,.12-.47,0-.9-.05-1.27-.16-.38-.11-.71-.31-1-.58-.29-.27-.53-.66-.72-1.16v-.03c-.19-.46-.26-.91-.24-1.34,.03-.44,.15-.85,.35-1.23Zm-4.53,1.25l1.07,1.82-4.99,2.92,1.11,1.89,4.39-2.57,1.07,1.82-4.39,2.57,1.14,1.96,5.05-2.96,1.07,1.82-7.08,4.14-5.45-9.31,7.01-4.1Zm-13.42,8.94c1.05-.88,2.08-1.27,3.11-1.18,.87,.08,1.63,.51,2.29,1.3l.02,.02c.56,.67,.85,1.35,.88,2.05,.03,.69-.14,1.36-.51,2l4.49,1.26-2.13,1.78-3.99-1.16-.02,.02-1.41,1.18,2.22,2.65-1.82,1.52-6.93-8.27,3.78-3.17Zm-14.49,15.87l5.02,.46-1.96-4.66,1.59-2.18,2.81,7.17,3.48,2.53-1.39,1.92-3.44-2.5-7.72-.49,1.63-2.24Zm-5.26,9.19l7.72,3.89,2.42-4.8,1.91,.96-3.49,6.92-9.63-4.85,1.07-2.12Zm-2.5,5.76l10.13,3.71-.82,2.23-10.13-3.71,.82-2.23Zm-3.96,14.33l5.04-1.85-3.89-3.7,.52-2.5,10.56,2.19-.48,2.29-6.9-1.43,3.9,3.91v.06l-5.09,2.02,6.85,1.42-.48,2.29-10.56-2.19,.52-2.5Zm-1.03,10.82l10.94-4.45-.04,2.48-2.43,.95-.07,4.56,2.4,1.03-.04,2.42-10.79-4.8,.04-2.19Zm1.75,17.89l-1.38-8.1,2.11-.36,.98,5.76,2.29-.39-.87-5.07,2.11-.36,.87,5.07,4.12-.7,.4,2.34-10.63,1.81Zm15.22,18.93l-3.22-1.48-2.44,2.57,.49-3.47-3.17-1.5,3.49-.63,.51-3.52,1.67,3.08,3.4-.63-2.4,2.48,1.67,3.09Zm22.81,25.69c-.29,.44-.62,.78-1.01,1.02-.38,.24-.8,.38-1.24,.43-.44,.05-.9,0-1.38-.14-.48-.14-.96-.36-1.44-.68-.68-.44-1.27-1-1.77-1.66-.5-.66-.86-1.41-1.08-2.24l2.07-.63c.19,.6,.44,1.13,.74,1.61,.3,.48,.71,.88,1.22,1.21,.41,.27,.77,.4,1.09,.4,.32,0,.57-.13,.74-.4l.02-.03c.08-.13,.13-.26,.15-.38,.02-.13-.01-.28-.09-.45-.08-.17-.2-.37-.38-.61-.18-.24-.42-.53-.74-.86-.38-.4-.71-.79-.99-1.17-.28-.37-.48-.75-.6-1.11-.12-.37-.16-.74-.11-1.13,.05-.39,.22-.8,.51-1.25l.02-.02c.27-.41,.58-.73,.95-.95,.36-.23,.76-.37,1.19-.43,.43-.06,.88-.03,1.34,.09,.46,.12,.92,.33,1.38,.63,.65,.43,1.19,.92,1.61,1.47,.42,.55,.74,1.16,.96,1.82l-1.98,.81c-.22-.53-.47-1-.75-1.41-.28-.41-.61-.73-.99-.98-.38-.25-.72-.36-1.01-.34-.29,.02-.5,.15-.65,.37l-.02,.03c-.09,.15-.15,.29-.16,.43-.01,.14,.02,.3,.11,.48,.09,.18,.24,.39,.44,.63,.2,.24,.46,.54,.78,.89,.37,.41,.69,.81,.95,1.19,.26,.38,.44,.75,.54,1.12,.11,.37,.13,.73,.07,1.09-.06,.36-.22,.74-.47,1.13l-.02,.03Zm2.55,4.79l-2.09-1.07,4.85-9.48,2.09,1.07-4.85,9.48Zm11.7,4.69l-1.87-.68-2.54-8.12-2.31,6.36-2.17-.79,3.63-10.01,2.03,.74,2.46,7.86,2.23-6.16,2.17,.79-3.63,10.01Zm6.24-2.72c.08,.43,.22,.81,.44,1.16,.21,.35,.49,.64,.83,.88,.34,.24,.74,.4,1.19,.48,.6,.11,1.12,.09,1.58-.06,.45-.15,.92-.37,1.4-.68l1.21,1.74c-.32,.24-.65,.45-.98,.63-.33,.18-.68,.32-1.06,.42-.37,.1-.77,.16-1.2,.17-.42,.01-.89-.03-1.4-.12-.77-.14-1.46-.4-2.07-.8-.61-.4-1.11-.88-1.5-1.45-.39-.57-.67-1.21-.82-1.91-.15-.71-.16-1.43-.03-2.18v-.03c.14-.75,.4-1.43,.78-2.03,.39-.61,.86-1.11,1.43-1.52,.57-.41,1.21-.7,1.93-.86,.72-.17,1.48-.18,2.29-.03,.49,.09,.93,.21,1.32,.36,.39,.15,.74,.33,1.04,.52,.3,.2,.58,.42,.82,.67,.24,.25,.46,.51,.66,.8l-1.77,1.43c-.34-.44-.71-.81-1.1-1.09-.39-.29-.85-.47-1.38-.57-.44-.08-.86-.07-1.27,.04-.4,.1-.77,.28-1.09,.53-.32,.25-.59,.56-.81,.93-.22,.37-.37,.78-.45,1.23v.03c-.08,.45-.08,.89,0,1.31Zm17.14-3.04l-5.7-.11-.04,2.16,5.02,.1-.04,2.08-5.02-.1-.04,2.24,5.78,.11-.04,2.08-8.09-.15,.2-10.64,8.01,.15-.04,2.08Zm8.28,7.64l-1.33-8.24-1.76,.75-.79-1.81,2.87-1.39,1.58-.25,1.71,10.59-2.28,.37Zm11.44-4.17c-.23,.6-.59,1.11-1.07,1.54-.48,.43-1.08,.75-1.81,.96-.75,.22-1.42,.29-2.01,.22-.59-.07-1.16-.22-1.7-.46l.7-2.04c.46,.2,.88,.32,1.26,.36,.38,.04,.79,0,1.23-.12,.63-.18,1.06-.54,1.27-1.07,.21-.53,.26-1.15,.14-1.87-.19,.29-.44,.54-.75,.77-.3,.22-.68,.4-1.13,.53-.56,.16-1.08,.23-1.57,.21-.49-.02-.94-.13-1.34-.32-.4-.19-.75-.47-1.04-.83-.29-.36-.5-.8-.65-1.31v-.03c-.16-.52-.2-1.02-.13-1.52,.06-.49,.22-.95,.47-1.36,.25-.41,.59-.78,1.02-1.1,.43-.32,.93-.56,1.51-.72,.34-.1,.66-.17,.95-.2,.29-.03,.57-.04,.82-.02,.26,.02,.51,.07,.76,.16,.25,.08,.49,.19,.74,.33,.24,.13,.46,.29,.68,.49,.21,.19,.42,.43,.61,.71,.2,.28,.38,.61,.55,.99,.17,.38,.33,.82,.48,1.33v.03c.25,.83,.37,1.61,.37,2.36,0,.74-.12,1.41-.35,2.01Zm9.71-3.22c-.22,.4-.53,.76-.93,1.1-.4,.34-.87,.63-1.4,.87-.54,.24-1.06,.4-1.58,.47-.52,.07-1,.06-1.44-.03-.44-.1-.84-.27-1.18-.53-.34-.26-.61-.6-.8-1.02v-.03c-.28-.59-.36-1.13-.26-1.61,.1-.48,.35-.96,.76-1.44-.48-.06-.91-.2-1.28-.43-.37-.23-.67-.61-.91-1.13v-.03c-.18-.37-.26-.75-.24-1.15,.02-.4,.12-.78,.31-1.16,.19-.38,.46-.73,.82-1.05,.35-.33,.79-.61,1.31-.84,.51-.23,1-.37,1.49-.42,.48-.05,.93-.03,1.33,.07,.41,.1,.77,.28,1.07,.53,.31,.26,.55,.57,.72,.94v.03c.25,.53,.33,1,.26,1.43-.07,.43-.25,.84-.52,1.25,.61,.04,1.13,.17,1.56,.39,.43,.22,.78,.62,1.04,1.19v.03c.22,.45,.3,.9,.27,1.33-.03,.44-.16,.85-.38,1.25Zm8.45-5.14c-.11,.44-.33,.86-.64,1.26-.31,.4-.72,.76-1.21,1.07-.82,.51-1.6,.81-2.35,.88-.75,.07-1.47,0-2.15-.23l.54-2.16c.53,.16,1.02,.22,1.48,.19,.45-.03,.91-.19,1.38-.48,.38-.24,.62-.53,.73-.87,.11-.34,.06-.68-.15-1.02l-.02-.02c-.23-.37-.56-.55-1-.55-.43,0-.93,.17-1.49,.52l-.82,.52-1.1-1.06,.79-3.51-3.54,2.23-1.08-1.71,6.1-3.84,.94,1.49-.92,3.62c.34-.14,.69-.25,1.05-.32,.36-.07,.72-.08,1.07-.03,.35,.05,.69,.18,1.02,.39,.32,.21,.62,.52,.88,.94l.02,.03c.27,.43,.44,.87,.51,1.32,.07,.45,.05,.9-.06,1.34Zm1.25-18.22c-11.22,11.22-26.14,17.4-42,17.4s-30.79-6.18-42.01-17.4c-11.22-11.22-17.4-26.14-17.4-42.01s6.18-30.78,17.4-42c11.22-11.22,26.14-17.4,42.01-17.4s30.78,6.18,42,17.4c11.22,11.22,17.4,26.14,17.4,42s-6.18,30.79-17.4,42.01Zm20.83-5.43l-2.44-2.58-3.23,1.51,1.67-3.09-2.39-2.5,3.39,.65,1.67-3.1,.53,3.5,3.49,.63-3.17,1.5,.49,3.47Zm10.53-23.04l-8.49-1.63-1.02,5.28-2.1-.4,1.46-7.61,10.59,2.04-.45,2.33Zm.84-6.25l-10.75-.8,.18-2.37,10.75,.8-.18,2.37Zm.09-7.54c-.13,.35-.28,.67-.47,.97-.19,.3-.4,.58-.63,.84l-1.82-1.42c.36-.44,.63-.88,.82-1.33,.19-.45,.27-.94,.25-1.49-.02-.45-.13-.86-.33-1.24-.2-.37-.45-.69-.78-.95-.32-.26-.69-.46-1.1-.59-.41-.13-.85-.19-1.31-.16h-.03c-.46,.03-.89,.13-1.29,.3-.4,.18-.75,.41-1.04,.69-.29,.29-.52,.63-.68,1.02-.16,.39-.23,.82-.2,1.28,.03,.62,.17,1.13,.42,1.54,.25,.41,.58,.82,.99,1.22l-1.44,1.59c-.31-.26-.59-.53-.85-.82-.25-.28-.47-.6-.66-.94-.19-.34-.34-.73-.45-1.14-.11-.42-.18-.88-.21-1.41-.04-.79,.06-1.53,.31-2.22,.25-.69,.61-1.3,1.08-1.82,.47-.52,1.04-.94,1.7-1.25,.66-.31,1.38-.49,2.15-.53h.03c.77-.04,1.5,.06,2.18,.3,.69,.24,1.3,.59,1.83,1.06,.54,.47,.97,1.03,1.29,1.71,.33,.67,.52,1.42,.56,2.25,.03,.5,0,.96-.05,1.38-.06,.42-.15,.8-.28,1.15Z"/></g><path class="b" d="M92.74,12.57c.35-.23,.56-.57,.63-1.03v-.03c.08-.51-.03-.91-.31-1.22-.29-.3-.72-.49-1.3-.58l-2.33-.34-.45,3.06,2.38,.35c.58,.09,1.04,.01,1.4-.22Z"/></svg>