
<svg xmlns="http://www.w3.org/2000/svg" version="1.1" xmlns:xlink="http://www.w3.org/1999/xlink" preserveAspectRatio="none" x="0px" y="0px" width="1280px" height="720px" viewBox="0 0 1280 720">
<defs>
<g id="Layer0_0_MEMBER_0_MEMBER_0_MEMBER_0_FILL">
<path fill="#211E1F" stroke="none" d="
M 29.2 23.35
Q 29.2 20.1 29.45 16.9 26.05 17 17.75 17 9.45 17 6.05 16.9 6.3 20.1 6.3 23.35
L 6.2 26.25 7.05 26.25
Q 8 21.5 9.6 19.6 11.15 17.75 13.9 17.75
L 14.75 17.75 14.75 39.4
Q 14.75 41.7 14 42.35 13.25 42.95 10.65 43
L 10.65 43.75 24.85 43.75 24.85 43
Q 22.25 42.95 21.55 42.35 20.8 41.7 20.8 39.4
L 20.8 17.75 21.6 17.75
Q 24.35 17.75 25.85 19.6 27.5 21.55 28.45 26.25
L 29.3 26.25 29.2 23.35 Z"/>
</g>

<g id="Layer0_0_MEMBER_0_MEMBER_0_MEMBER_1_FILL">
<path fill="#211E1F" stroke="none" d="
M 42.6 25.25
Q 43.95 25.25 44.45 26.15 44.9 26.85 44.9 28.45
L 44.9 40.25
Q 44.9 41.8 44.45 42.4 44.05 42.95 42.9 42.95
L 42.9 43.75
Q 45.6 43.6 47.8 43.6 49.95 43.6 52.8 43.75
L 52.8 42.95
Q 51.45 42.95 50.95 42.4 50.4 41.8 50.4 40.25
L 50.4 30
Q 50.4 26.45 49.2 25.1 47.95 23.6 45 23.6 40.5 23.6 38.8 27.1
L 38.8 14.05
Q 36.65 14.6 33.25 14.6
L 30.95 14.5 30.95 15.3
Q 32.25 15.3 32.85 16.1 33.35 16.85 33.35 18.6
L 33.35 40.25
Q 33.35 41.8 32.8 42.4 32.3 42.95 30.95 42.95
L 30.95 43.75
Q 33.95 43.6 36.15 43.6 38.3 43.6 40.85 43.75
L 40.85 42.95
Q 39.7 42.95 39.25 42.4 38.8 41.8 38.8 40.25
L 38.8 29.65
Q 38.8 27.75 39.9 26.5 41 25.25 42.6 25.25 Z"/>
</g>

<g id="Layer0_0_MEMBER_0_MEMBER_0_MEMBER_2_FILL">
<path fill="#211E1F" stroke="none" d="
M 60.45 33.85
L 60.5 32.05 71.15 32.05
Q 71.15 23.6 64 23.6 59.8 23.6 57.35 26.25 54.7 29.05 54.7 34.15 54.7 39.15 57.15 41.8 59.45 44.3 63.45 44.3 66.35 44.3 68.5 42.4 70.3 40.85 71.05 38.4
L 70.35 38.15
Q 68.55 41.15 65.4 41.15 63.4 41.15 62.05 39.45 60.45 37.5 60.45 33.85
M 65.8 26.45
Q 66.4 28.3 66.35 31.3
L 60.4 31.3
Q 60.8 24.4 63.75 24.4 65.1 24.4 65.8 26.45 Z"/>
</g>

<g id="Layer0_0_MEMBER_0_MEMBER_0_MEMBER_3_FILL">
<path fill="#211E1F" stroke="none" d="
M 105.05 17.65
L 105.05 16.9 94.15 16.9 94.15 17.65
Q 95.6 17.75 96.2 19.7
L 98.15 25.6 94.3 36.9 88.8 20.85
Q 88.45 19.95 88.45 19.15 88.45 17.85 89.8 17.65
L 89.8 16.9 79.45 16.9 79.45 17.65
Q 81.05 17.75 81.85 20.1
L 90.35 43.85 93 43.85 98.6 26.95 104.2 43.85 106.85 43.85 113.55 22.15
Q 114.65 18.45 116.85 17.65
L 116.85 16.9 109.25 16.9 109.25 17.65
Q 112.5 17.75 112.5 20.8 112.5 22.3 111.65 25.25
L 108.05 36.7 102.8 20.85
Q 102.45 19.8 102.45 19.05 102.45 18.25 103.1 17.95 103.65 17.7 105.05 17.65 Z"/>
</g>

<g id="Layer0_0_MEMBER_0_MEMBER_0_MEMBER_4_FILL">
<path fill="#211E1F" stroke="none" d="
M 125.45 27.75
L 125.45 30.7
Q 125.45 31.8 124.05 32.65 123.25 33.05 120.5 34.1 117.75 35.1 116.5 36.35 115.15 37.7 115.15 39.7 115.15 41.75 116.5 42.9 117.75 44 119.95 44 123.7 44 125.55 40.95 125.55 44 129.2 44 131.85 44 133.55 42.65
L 133.15 42
Q 132.2 42.65 131.75 42.65 130.95 42.65 130.95 40.95
L 130.95 30.6
Q 130.95 28.5 130.7 27.4 130.4 26.15 129.6 25.3 127.9 23.6 124.05 23.6 120.6 23.6 118.25 24.9 116.15 26.1 116.15 28.05 116.15 29.35 116.85 30.15 117.6 31 118.8 31 120.2 31 121.05 30.25 121.9 29.45 121.9 28.25 121.9 26.05 119.65 25.3 120.6 24.35 122.4 24.35 125.45 24.35 125.45 27.75
M 123.1 34.15
Q 125.05 32.95 125.45 32.25
L 125.45 40.05
Q 124.35 41.6 122.9 41.6 120.55 41.6 120.55 38.65 120.55 36 123.1 34.15 Z"/>
</g>

<g id="Layer0_0_MEMBER_0_MEMBER_0_MEMBER_5_FILL">
<path fill="#211E1F" stroke="none" d="
M 149.05 23.65
L 148.2 23.65
Q 148.05 25 147.3 25 146.95 25 146.65 24.75 144.75 23.6 142.1 23.6 139.35 23.6 137.55 24.95 135.55 26.4 135.55 28.8 135.55 30.85 137 32.6 137.85 33.6 140.35 35.55 142.4 37.2 143.05 37.95 144.15 39.2 144.15 40.7 144.15 42.05 143.3 42.8 142.6 43.45 141.5 43.45 137.15 43.45 136.4 36.45
L 135.55 36.45
Q 135.55 42.4 135.4 44
L 136.2 44
Q 136.55 42.65 137.15 42.65
L 137.3 42.7
Q 137.85 42.85 139.05 43.5 140.65 44.3 142.65 44.3 145.65 44.3 147.7 42.8 149.8 41.2 149.8 38.65 149.8 36.6 148.5 35 147.65 33.95 145.3 32.15 142.25 29.9 142.05 29.7 140.6 28.35 140.6 26.9 140.6 25.75 141.35 25.1 142.05 24.45 143.2 24.45 147.2 24.45 148.05 30.3
L 148.85 30.3
Q 148.85 25.6 149.05 23.65 Z"/>
</g>

<g id="Layer0_0_MEMBER_0_MEMBER_0_MEMBER_6_FILL">
<path fill="#211E1F" stroke="none" d="
M 163.6 25.25
Q 164.95 25.25 165.5 26.15 165.95 26.9 165.95 28.45
L 165.95 40.25
Q 165.95 41.8 165.5 42.4 165.05 42.95 163.9 42.95
L 163.9 43.75
Q 166.6 43.6 168.8 43.6 170.95 43.6 173.8 43.75
L 173.8 42.95
Q 172.45 42.95 171.95 42.4 171.4 41.8 171.4 40.25
L 171.4 30
Q 171.4 26.45 170.2 25.1 168.95 23.6 166 23.6 161.5 23.6 159.8 27.1
L 159.8 14.05
Q 157.65 14.6 154.25 14.6
L 151.95 14.5 151.95 15.3
Q 153.25 15.3 153.85 16.1 154.35 16.85 154.35 18.6
L 154.35 40.25
Q 154.35 41.8 153.8 42.4 153.3 42.95 151.95 42.95
L 151.95 43.75
Q 154.95 43.6 157.15 43.6 159.3 43.6 161.85 43.75
L 161.85 42.95
Q 160.7 42.95 160.25 42.4 159.8 41.8 159.8 40.25
L 159.8 29.65
Q 159.8 27.75 160.9 26.5 162 25.25 163.6 25.25 Z"/>
</g>

<g id="Layer0_0_MEMBER_0_MEMBER_0_MEMBER_7_FILL">
<path fill="#211E1F" stroke="none" d="
M 177.6 24.25
Q 176.45 24.25 175.25 24.1
L 175.25 24.9
Q 176.55 24.9 177.15 25.75 177.65 26.5 177.65 28.25
L 177.65 40.25
Q 177.65 41.8 177.1 42.4 176.6 42.95 175.25 42.95
L 175.25 43.75
Q 178.25 43.6 180.5 43.6 182.7 43.6 185.55 43.75
L 185.55 42.95
Q 184.2 42.95 183.7 42.4 183.15 41.8 183.15 40.25
L 183.15 23.7
Q 180.95 24.25 177.6 24.25 Z"/>
</g>

<g id="Layer0_0_MEMBER_0_MEMBER_0_MEMBER_8_FILL">
<path fill="#211E1F" stroke="none" d="
M 204.1 43.6
Q 206.25 43.6 209.1 43.75
L 209.1 42.95
Q 207.75 42.95 207.2 42.4 206.65 41.8 206.65 40.25
L 206.65 30
Q 206.65 26.45 205.5 25.1 204.15 23.6 201.3 23.6 196.8 23.6 195.1 27.15
L 195.1 23.7
Q 192.9 24.25 189.55 24.25 188.4 24.25 187.2 24.1
L 187.2 24.9
Q 188.55 24.9 189.1 25.75 189.65 26.5 189.65 28.25
L 189.65 40.25
Q 189.65 41.8 189.1 42.4 188.55 42.95 187.2 42.95
L 187.2 43.75
Q 190.2 43.6 192.45 43.6 194.45 43.6 197.15 43.75
L 197.15 42.95
Q 196 42.95 195.55 42.4 195.1 41.8 195.1 40.25
L 195.1 29.65
Q 195.1 27.8 196.2 26.5 197.25 25.25 198.85 25.25 200.2 25.25 200.75 26.15 201.2 26.9 201.2 28.45
L 201.2 40.25
Q 201.2 41.8 200.75 42.4 200.3 42.95 199.15 42.95
L 199.15 43.75
Q 202 43.6 204.1 43.6 Z"/>
</g>

<g id="Layer0_0_MEMBER_0_MEMBER_0_MEMBER_9_FILL">
<path fill="#211E1F" stroke="none" d="
M 223.1 23.95
L 223.05 23.35 223.1 22.8
Q 223.25 21.6 223.65 20.85 224.35 23 226.5 23 227.6 23 228.3 22.4 229.05 21.75 229.05 20.8 229.05 19.75 228.3 19.1 227.55 18.5 226.3 18.5 223.15 18.5 222.7 22 222.55 23 222.6 23.85 221.1 23.6 219.75 23.6 216.05 23.6 213.95 25.05 211.6 26.65 211.6 29.65 211.6 33.7 215.75 35.1 213.1 36.35 212 37.6 210.95 38.8 210.95 40.45 210.95 42.45 212.55 43.35 213.6 43.95 215.15 43.95
L 216.05 43.95
Q 215.7 44.2 212.45 45.4 210.3 46.2 210.3 47.6 210.3 49.05 212.35 49.95 214.6 50.9 218.75 50.9 224 50.9 227.05 48.3 229.7 46.05 229.7 43 229.7 38.9 224.6 38.9
L 215.85 38.9
Q 214.3 38.9 214.3 37.65 214.3 36.6 216.45 35.3 218.05 35.7 219.75 35.7 223.4 35.7 225.55 34.25 227.9 32.65 227.9 29.65 227.9 25.2 223.1 23.95
M 221.65 25.45
Q 222.3 26.75 222.3 29.65 222.3 32.55 221.65 33.85 221 35 219.75 35 217.2 35 217.2 29.65 217.2 24.3 219.75 24.3 221 24.3 221.65 25.45
M 215.5 46.95
Q 215.5 45.2 216.8 43.95
L 223.3 43.95
Q 224.55 43.95 225.05 44.35 225.5 44.7 225.5 45.55 225.5 47.7 223.75 49 222.15 50.25 219.75 50.25 217.85 50.25 216.75 49.45 215.5 48.55 215.5 46.95 Z"/>
</g>

<g id="Layer0_0_MEMBER_0_MEMBER_0_MEMBER_10_FILL">
<path fill="#211E1F" stroke="none" d="
M 243.7 40.4
L 243.05 40.05
Q 242.05 42.35 240.45 42.35 238.8 42.35 238.8 40.2
L 238.8 24.9 243.3 24.9 243.3 24.15 238.8 24.15 238.8 17.9
Q 236.65 19.05 233.35 19.15
L 233.35 24.15 230.15 24.15 230.15 24.9 233.35 24.9 233.35 37.7
Q 233.35 39.8 233.6 40.95 233.9 42.2 234.7 43 236 44.3 238.5 44.3 242.25 44.3 243.7 40.4 Z"/>
</g>

<g id="Layer0_0_MEMBER_0_MEMBER_0_MEMBER_11_FILL">
<path fill="#211E1F" stroke="none" d="
M 247.4 25.95
Q 244.8 28.6 244.8 33.95 244.8 44.3 254.1 44.3 263.4 44.3 263.4 33.95 263.4 23.6 254.1 23.6 249.75 23.6 247.4 25.95
M 251.55 41.3
Q 250.55 38.85 250.55 33.95 250.55 29.05 251.55 26.6 252.45 24.35 254.1 24.35 255.75 24.35 256.65 26.6 257.65 29.05 257.65 33.95 257.65 38.85 256.65 41.3 255.75 43.55 254.1 43.55 252.45 43.55 251.55 41.3 Z"/>
</g>

<g id="Layer0_0_MEMBER_0_MEMBER_0_MEMBER_12_FILL">
<path fill="#211E1F" stroke="none" d="
M 287.65 43.75
L 287.65 42.95
Q 286.3 42.95 285.75 42.4 285.2 41.8 285.2 40.25
L 285.2 30
Q 285.2 26.45 284 25.1 282.75 23.6 279.85 23.6 275.35 23.6 273.65 27.15
L 273.65 23.7
Q 271.45 24.25 268.1 24.25 266.95 24.25 265.75 24.1
L 265.75 24.9
Q 267.1 24.9 267.65 25.75 268.2 26.5 268.2 28.25
L 268.2 40.25
Q 268.2 41.8 267.65 42.4 267.1 42.95 265.75 42.95
L 265.75 43.75
Q 268.75 43.6 271 43.6 273 43.6 275.7 43.75
L 275.7 42.95
Q 274.55 42.95 274.1 42.4 273.65 41.8 273.65 40.25
L 273.65 29.65
Q 273.65 27.8 274.75 26.5 275.8 25.25 277.4 25.25 278.75 25.25 279.3 26.15 279.75 26.9 279.75 28.45
L 279.75 40.25
Q 279.75 41.8 279.3 42.4 278.85 42.95 277.7 42.95
L 277.7 43.75
Q 280.55 43.6 282.65 43.6 284.8 43.6 287.65 43.75 Z"/>
</g>

<g id="Layer0_0_MEMBER_0_MEMBER_0_MEMBER_13_FILL">
<path fill="#211E1F" stroke="none" d="
M 313.3 17.85
Q 312.1 17.15 311.2 16.85 309.7 16.4 307.75 16.4 304.15 16.4 301.85 18.1 299.25 19.95 299.25 23.35 299.25 26.2 301.3 28.4 302.6 29.8 306 32 308.95 33.9 310.1 35.15 311.7 36.9 311.7 39.05 311.7 41.1 310.35 42.25 309.1 43.3 307 43.3 300.7 43.3 300.05 33.75
L 299.2 33.75
Q 299.2 41.4 299.05 44
L 299.95 44
Q 300.1 42.35 300.75 42.35 301.25 42.35 302.05 42.9 304.65 44.3 308.15 44.3 312.2 44.3 314.75 42.5 317.55 40.5 317.55 36.9 317.55 34.1 315.7 32 314.45 30.55 311.15 28.35 307.15 25.65 306.3 24.85 304.6 23.25 304.6 21.2 304.6 19.45 305.8 18.35 306.9 17.3 308.75 17.3 311.65 17.3 313.4 19.85 315 22.15 315.2 25.4
L 316.1 25.4
Q 316.1 18.75 316.3 16.75
L 315.4 16.75
Q 315.2 18.4 314.55 18.4 314.15 18.4 313.3 17.85 Z"/>
</g>

<g id="Layer0_0_MEMBER_0_MEMBER_0_MEMBER_14_FILL">
<path fill="#211E1F" stroke="none" d="
M 327.75 24.15
L 327.75 17.9
Q 325.6 19.05 322.3 19.15
L 322.3 24.15 319.1 24.15 319.1 24.9 322.3 24.9 322.3 37.7
Q 322.3 39.8 322.55 40.95 322.85 42.2 323.65 43 324.95 44.3 327.45 44.3 331.2 44.3 332.65 40.4
L 332.05 40.05
Q 331.05 42.35 329.45 42.35 327.75 42.35 327.75 40.2
L 327.75 24.9 332.25 24.9 332.25 24.15 327.75 24.15 Z"/>
</g>

<g id="Layer0_0_MEMBER_0_MEMBER_0_MEMBER_15_FILL">
<path fill="#211E1F" stroke="none" d="
M 343.9 27.75
L 343.9 30.7
Q 343.9 31.8 342.45 32.65 341.7 33.05 338.9 34.1 336.15 35.1 334.95 36.35 333.6 37.7 333.6 39.7 333.6 41.75 334.95 42.9 336.2 44 338.4 44 342.15 44 344 40.95 344 44 347.65 44 350.25 44 351.95 42.65
L 351.6 42
Q 350.65 42.65 350.2 42.65 349.35 42.65 349.35 40.95
L 349.35 30.6
Q 349.35 28.45 349.1 27.4 348.8 26.1 348 25.3 346.35 23.6 342.45 23.6 339.05 23.6 336.7 24.9 334.55 26.1 334.55 28.05 334.55 29.35 335.3 30.15 336.05 31 337.25 31 338.65 31 339.5 30.25 340.35 29.45 340.35 28.25 340.35 26.05 338.1 25.3 339.05 24.35 340.8 24.35 343.9 24.35 343.9 27.75
M 341.55 34.15
Q 343.5 32.95 343.9 32.25
L 343.9 40.05
Q 342.8 41.6 341.35 41.6 339 41.6 339 38.65 339 35.95 341.55 34.15 Z"/>
</g>

<g id="Layer0_0_MEMBER_0_MEMBER_0_MEMBER_16_FILL">
<path fill="#211E1F" stroke="none" d="
M 364.7 25.25
Q 366.05 25.25 366.6 26.15 367.05 26.9 367.05 28.45
L 367.05 40.25
Q 367.05 41.8 366.6 42.4 366.15 42.95 365 42.95
L 365 43.75
Q 367.85 43.6 369.95 43.6 372.1 43.6 374.95 43.75
L 374.95 42.95
Q 373.6 42.95 373.05 42.4 372.5 41.8 372.5 40.25
L 372.5 30
Q 372.5 26.45 371.35 25.1 370 23.6 367.15 23.6 362.65 23.6 360.95 27.15
L 360.95 23.7
Q 358.75 24.25 355.4 24.25 354.25 24.25 353.05 24.1
L 353.05 24.9
Q 354.4 24.9 354.95 25.75 355.5 26.5 355.5 28.25
L 355.5 40.25
Q 355.5 41.8 354.95 42.4 354.4 42.95 353.05 42.95
L 353.05 43.75
Q 356.05 43.6 358.3 43.6 360.3 43.6 363 43.75
L 363 42.95
Q 361.85 42.95 361.4 42.4 360.95 41.8 360.95 40.25
L 360.95 29.65
Q 360.95 27.8 362.05 26.5 363.1 25.25 364.7 25.25 Z"/>
</g>

<g id="Layer0_0_MEMBER_0_MEMBER_0_MEMBER_17_FILL">
<path fill="#211E1F" stroke="none" d="
M 395 14.05
Q 392.8 14.55 389.45 14.55 387.9 14.55 387.1 14.45
L 387.1 15.25
Q 388.45 15.25 389 16.1 389.55 16.85 389.55 18.6
L 389.55 25
Q 388.1 23.6 385.35 23.6 381.55 23.6 379.25 26.15 376.85 28.9 376.85 33.85 376.85 39.1 379.05 41.8 381.05 44.3 384.6 44.3 388.2 44.3 389.55 40.95
L 389.55 44.15
Q 391.85 43.65 395.1 43.65 396.65 43.65 397.45 43.75
L 397.45 42.95
Q 396.1 42.95 395.55 42.1 395 41.35 395 39.6
L 395 14.05
M 389.55 39.45
Q 389.3 40.9 388.35 41.8 387.4 42.65 386.2 42.65 382.6 42.65 382.6 33.95 382.6 24.7 386.75 24.7 388.5 24.7 389.55 25.95
L 389.55 39.45 Z"/>
</g>

<g id="Layer0_0_MEMBER_0_MEMBER_1_FILL">
<path fill="#DEA852" stroke="none" d="
M 184.2 14.2
L 183.85 12.4
Q 183.65 13.4 183.15 14.3 181.8 9.3 182.1 6.15 181 6.7 179.75 7.85 177.3 10.2 176.5 13.4 176.2 14.7 176.65 16.5 177.2 18.55 178.45 18.7 178.5 18.45 178.6 18.1 178.75 17.35 179.1 16.9 179.9 15.85 180.6 16.05 180.8 16.1 180.95 16.7 181.1 17.35 181 17.8 180.7 19.25 179.95 20.15
L 179.2 20.8
Q 179.35 21.3 181.1 20.55 182.95 19.7 183.55 18.15 184.35 16.35 184.2 14.2 Z"/>
</g>
</defs>

<g transform="matrix( 3, 0, 0, 3, 34.75,274.5) ">
<use xlink:href="#Layer0_0_MEMBER_0_MEMBER_0_MEMBER_0_FILL"/>
</g>

<g transform="matrix( 3, 0, 0, 3, 34.75,274.5) ">
<use xlink:href="#Layer0_0_MEMBER_0_MEMBER_0_MEMBER_1_FILL"/>
</g>

<g transform="matrix( 3, 0, 0, 3, 34.75,274.5) ">
<use xlink:href="#Layer0_0_MEMBER_0_MEMBER_0_MEMBER_2_FILL"/>
</g>

<g transform="matrix( 3, 0, 0, 3, 34.75,274.5) ">
<use xlink:href="#Layer0_0_MEMBER_0_MEMBER_0_MEMBER_3_FILL"/>
</g>

<g transform="matrix( 3, 0, 0, 3, 34.75,274.5) ">
<use xlink:href="#Layer0_0_MEMBER_0_MEMBER_0_MEMBER_4_FILL"/>
</g>

<g transform="matrix( 3, 0, 0, 3, 34.75,274.5) ">
<use xlink:href="#Layer0_0_MEMBER_0_MEMBER_0_MEMBER_5_FILL"/>
</g>

<g transform="matrix( 3, 0, 0, 3, 34.75,274.5) ">
<use xlink:href="#Layer0_0_MEMBER_0_MEMBER_0_MEMBER_6_FILL"/>
</g>

<g transform="matrix( 3, 0, 0, 3, 34.75,274.5) ">
<use xlink:href="#Layer0_0_MEMBER_0_MEMBER_0_MEMBER_7_FILL"/>
</g>

<g transform="matrix( 3, 0, 0, 3, 34.75,274.5) ">
<use xlink:href="#Layer0_0_MEMBER_0_MEMBER_0_MEMBER_8_FILL"/>
</g>

<g transform="matrix( 3, 0, 0, 3, 34.75,274.5) ">
<use xlink:href="#Layer0_0_MEMBER_0_MEMBER_0_MEMBER_9_FILL"/>
</g>

<g transform="matrix( 3, 0, 0, 3, 34.75,274.5) ">
<use xlink:href="#Layer0_0_MEMBER_0_MEMBER_0_MEMBER_10_FILL"/>
</g>

<g transform="matrix( 3, 0, 0, 3, 34.75,274.5) ">
<use xlink:href="#Layer0_0_MEMBER_0_MEMBER_0_MEMBER_11_FILL"/>
</g>

<g transform="matrix( 3, 0, 0, 3, 34.75,274.5) ">
<use xlink:href="#Layer0_0_MEMBER_0_MEMBER_0_MEMBER_12_FILL"/>
</g>

<g transform="matrix( 3, 0, 0, 3, 34.75,274.5) ">
<use xlink:href="#Layer0_0_MEMBER_0_MEMBER_0_MEMBER_13_FILL"/>
</g>

<g transform="matrix( 3, 0, 0, 3, 34.75,274.5) ">
<use xlink:href="#Layer0_0_MEMBER_0_MEMBER_0_MEMBER_14_FILL"/>
</g>

<g transform="matrix( 3, 0, 0, 3, 34.75,274.5) ">
<use xlink:href="#Layer0_0_MEMBER_0_MEMBER_0_MEMBER_15_FILL"/>
</g>

<g transform="matrix( 3, 0, 0, 3, 34.75,274.5) ">
<use xlink:href="#Layer0_0_MEMBER_0_MEMBER_0_MEMBER_16_FILL"/>
</g>

<g transform="matrix( 3, 0, 0, 3, 34.75,274.5) ">
<use xlink:href="#Layer0_0_MEMBER_0_MEMBER_0_MEMBER_17_FILL"/>
</g>

<g transform="matrix( 3, 0, 0, 3, 34.75,274.5) ">
<use xlink:href="#Layer0_0_MEMBER_0_MEMBER_1_FILL"/>
</g>
</svg>
