<?xml version="1.0" encoding="UTF-8"?><svg id="a" xmlns="http://www.w3.org/2000/svg" viewBox="0 0 391.39 44.76"><defs><style>.b{fill:#eaa63e;}.c{fill:#231f20;}</style></defs><g><path class="c" d="M23.15,17.21c0,1.13,.04,2.19,.11,2.89h-.87c-1.28-6.39-3.28-8.47-6.82-8.47h-.83v21.67c0,3.1,.69,3.54,4.06,3.58v.76c-1.61-.06-4.43-.11-7.23-.11s-5.43,.06-6.93,.11v-.76c3.37-.04,4.06-.48,4.06-3.58V11.63h-.83c-3.58,0-5.54,2.06-6.84,8.47H.15c.07-.7,.11-1.76,.11-2.89,0-1.26-.07-3.87-.26-6.45,3.43,.11,8.34,.11,11.73,.11s8.27,0,11.69-.11c-.2,2.58-.28,5.19-.28,6.45Z"/><path class="c" d="M32.77,20.99c1.26-2.58,3.54-3.52,6.21-3.52,2.17,0,3.41,.59,4.19,1.48,.83,.96,1.19,2.35,1.19,4.93v10.23c0,2.11,.67,2.72,2.43,2.72v.8c-.96-.04-3.15-.15-5-.15-1.95,0-4,.11-4.93,.15v-.8c1.5,0,2.04-.61,2.04-2.72v-11.81c0-1.89-.44-3.17-2.34-3.17-2.09,0-3.78,1.82-3.78,4.39v10.58c0,2.11,.56,2.72,2.06,2.72v.8c-.89-.04-2.85-.15-4.71-.15-1.95,0-4.23,.11-5.23,.15v-.8c1.76,0,2.43-.61,2.43-2.72V12.48c0-2.26-.59-3.34-2.43-3.34v-.8c.8,.07,1.59,.11,2.34,.11,2.13,0,3.97-.15,5.54-.52v13.05Z"/><path class="c" d="M64.33,32l.69,.26c-.91,2.85-3.39,5.91-7.6,5.91-5.12,0-8.75-3.22-8.75-10.16s3.89-10.55,9.29-10.55c4.43,0,7.14,2.48,7.14,8.43h-10.62c-.06,.56-.07,1.19-.07,1.8,0,5.28,2.54,7.34,4.95,7.34,1.52,0,3.45-.52,4.99-3.04Zm-9.97-6.82h5.95c.07-3.71-.72-6.89-2.58-6.89-1.71,0-3.06,1.98-3.37,6.89Z"/><path class="c" d="M110.81,10.76v.76c-1.09,.43-2.45,1.63-3.32,4.5l-6.69,21.68c-.41-.02-.87-.04-1.33-.04s-.89,.02-1.3,.04l-5.6-16.88-5.63,16.88c-.41-.02-.87-.04-1.33-.04s-.89,.02-1.3,.04l-8.51-23.76c-.67-1.83-1.67-2.39-2.39-2.43v-.76c1.5,.07,3.73,.11,5.65,.11s3.67-.04,4.67-.11v.76c-.98,.13-1.33,.69-1.33,1.48,0,.5,.13,1.07,.35,1.71l5.5,16.05,3.87-11.29-1.96-5.91c-.52-1.58-1.26-1.98-2.06-2.04v-.76c1.39,.07,3.47,.11,5.41,.11,2.22,0,4.26-.04,5.47-.11v.76c-1.71,.07-2.59,.26-2.59,1.41,0,.44,.13,1.02,.39,1.78l5.21,15.88,3.61-11.49c.57-1.85,.85-3.3,.85-4.41,0-2.28-1.17-3.11-3.26-3.17v-.76c1.71,.07,3.15,.11,4.73,.11,1.11,0,2.13-.04,2.89-.11Z"/><path class="c" d="M123.54,19.17c1.11,1.15,1.35,2.67,1.35,5.32v10.32c0,1.22,.2,1.69,.82,1.69,.54,0,.96-.32,1.39-.65l.39,.65c-1.15,.93-2.41,1.39-4.34,1.39-2.78,0-3.63-1.45-3.65-3.08-1.3,2.13-3.47,3.08-5.6,3.08-2.84,0-4.8-1.56-4.8-4.32s1.82-4.28,5.34-5.58c2.8-1.06,4.99-1.78,4.99-3.41v-2.97c0-1.98-.85-3.39-3.1-3.39-.91,0-2.02,.26-2.71,.93,1.35,.46,2.24,1.45,2.24,2.98s-1.22,2.72-3.1,2.72c-1.65,0-2.69-1.26-2.69-2.93,0-1.39,.89-2.45,2.13-3.17,1.35-.76,3.21-1.3,5.76-1.3s4.34,.44,5.56,1.71Zm-4.11,6.97c-.35,.57-1.07,1.07-2.35,1.87-1.33,.98-2.58,2.22-2.58,4.5,0,2.09,1.02,2.95,2.37,2.95,.93,0,1.76-.41,2.56-1.54v-7.78Z"/><path class="c" d="M140.59,18.63c.26,.17,.48,.26,.69,.26,.44,0,.76-.44,.89-1.39h.82c-.13,1.45-.17,3.3-.17,6.67h-.8c-.39-2.8-1.63-5.88-4.87-5.88-1.46,0-2.58,.89-2.58,2.45,0,2.28,2.34,3.54,4.67,5.28,2.54,1.87,4.54,3.5,4.54,6.51,0,3.47-3.28,5.63-7.19,5.63-1.52,0-2.71-.33-3.56-.8-.69-.35-1.22-.63-1.76-.8-.06-.02-.11-.04-.17-.04-.43,0-.74,.54-.93,1.35h-.8c.11-1.63,.15-3.74,.15-7.58h.82c.46,4.11,1.93,6.99,5.12,6.99,1.32,0,2.67-.76,2.67-2.71,0-2.22-1.65-3.47-3.84-5.17-2.48-1.95-4.76-3.67-4.76-6.73,0-3.37,3.08-5.23,6.52-5.23,2.13,0,3.8,.69,4.54,1.17Z"/><path class="c" d="M153.77,20.99c1.26-2.58,3.54-3.52,6.21-3.52,2.17,0,3.41,.59,4.19,1.48,.83,.96,1.19,2.35,1.19,4.93v10.23c0,2.11,.67,2.72,2.43,2.72v.8c-.96-.04-3.15-.15-5-.15-1.95,0-4,.11-4.93,.15v-.8c1.5,0,2.04-.61,2.04-2.72v-11.81c0-1.89-.44-3.17-2.34-3.17-2.09,0-3.78,1.82-3.78,4.39v10.58c0,2.11,.56,2.72,2.06,2.72v.8c-.89-.04-2.85-.15-4.71-.15-1.95,0-4.23,.11-5.23,.15v-.8c1.76,0,2.43-.61,2.43-2.72V12.48c0-2.26-.59-3.34-2.43-3.34v-.8c.8,.07,1.59,.11,2.34,.11,2.13,0,3.97-.15,5.54-.52v13.05Z"/><path class="c" d="M177.09,34.11c0,2.11,.65,2.72,2.43,2.72v.8c-.96-.04-3.1-.15-5.08-.15s-4.24,.11-5.24,.15v-.8c1.76,0,2.43-.61,2.43-2.72v-11.97c0-2.28-.59-3.35-2.43-3.35v-.8c.8,.07,1.59,.13,2.35,.13,2.11,0,3.95-.17,5.54-.54v16.53Z"/><path class="c" d="M199.44,18.95c.83,.96,1.19,2.35,1.19,4.93v10.23c0,2.11,.67,2.72,2.43,2.72v.8c-.96-.04-3.15-.15-5-.15-1.95,0-4,.11-4.93,.15v-.8c1.5,0,2.04-.61,2.04-2.72v-11.81c0-1.89-.44-3.17-2.34-3.17-2.13,0-3.76,1.89-3.76,4.39v10.58c0,2.11,.54,2.72,2.04,2.72v.8c-.89-.04-2.85-.15-4.71-.15-1.95,0-4.23,.11-5.23,.15v-.8c1.76,0,2.43-.61,2.43-2.72v-11.97c0-2.28-.59-3.35-2.43-3.35v-.8c.8,.07,1.59,.13,2.35,.13,2.11,0,3.95-.17,5.54-.54v3.43c1.26-2.58,3.52-3.54,6.19-3.54,2.17,0,3.41,.59,4.19,1.48Z"/><path class="c" d="M218.55,32.77c2.76,0,5.13,.98,5.13,4.08,0,3.65-3.45,7.91-10.99,7.91-5.73,0-8.41-1.46-8.41-3.28,0-2.41,3.73-2.26,5.75-3.65h-.89c-1.45,0-4.24-.5-4.24-3.52,0-2.15,1.22-3.63,4.84-5.34-2.54-.83-4.17-2.61-4.17-5.47,0-4.19,3.48-6.04,8.15-6.04,1,0,1.96,.09,2.84,.26-.04-.63,0-1.26,.13-1.87,.24-1.98,1.33-3.5,3.6-3.5,1.61,0,2.76,.89,2.76,2.32,0,1.28-1.11,2.21-2.59,2.21-1.61,0-2.35-.8-2.84-2.13-.26,.44-.44,1.09-.56,1.93-.02,.19-.02,.37-.02,.56,0,.2,0,.41,.02,.61,2.91,.74,4.84,2.56,4.84,5.67,0,4.17-3.5,6.04-8.17,6.04-1.19,0-2.3-.11-3.28-.37-1.28,.76-2.17,1.37-2.17,2.34,0,.87,.54,1.26,1.56,1.26h8.73Zm.91,6.63c0-1.02-.46-1.58-2.19-1.58h-6.52c-.89,.85-1.3,2.19-1.3,3,0,2.17,1.87,3.28,4.26,3.28,3.06,0,5.75-1.72,5.75-4.71Zm-8.28-15.9c0,4.06,.96,5.36,2.54,5.36s2.54-1.3,2.54-5.36-.96-5.36-2.54-5.36-2.54,1.3-2.54,5.36Z"/><path class="c" d="M237.25,18.02v.76h-4.49v15.31c0,1.56,.56,2.11,1.67,2.11,.93,0,1.85-.59,2.59-2.28l.63,.35c-.83,2.26-2.39,3.89-5.19,3.89-1.71,0-2.95-.43-3.8-1.28-1.09-1.11-1.37-2.65-1.37-5.3v-12.81h-3.19v-.76h3.19v-5.02c2.13-.02,3.89-.37,5.47-1.22v6.25h4.49Z"/><path class="c" d="M257.36,27.83c0,7.52-3.84,10.34-9.3,10.34s-9.29-2.82-9.29-10.34,3.84-10.36,9.29-10.36,9.3,2.85,9.3,10.36Zm-12.86,0c0,6.8,1.5,9.58,3.56,9.58s3.58-2.78,3.58-9.58-1.5-9.6-3.58-9.6-3.56,2.82-3.56,9.6Z"/><path class="c" d="M277.98,18.95c.83,.96,1.19,2.35,1.19,4.93v10.23c0,2.11,.67,2.72,2.43,2.72v.8c-.96-.04-3.15-.15-5-.15-1.95,0-4,.11-4.93,.15v-.8c1.5,0,2.04-.61,2.04-2.72v-11.81c0-1.89-.44-3.17-2.34-3.17-2.13,0-3.76,1.89-3.76,4.39v10.58c0,2.11,.54,2.72,2.04,2.72v.8c-.89-.04-2.85-.15-4.71-.15-1.95,0-4.23,.11-5.23,.15v-.8c1.76,0,2.43-.61,2.43-2.72v-11.97c0-2.28-.59-3.35-2.43-3.35v-.8c.8,.07,1.59,.13,2.35,.13,2.11,0,3.95-.17,5.54-.54v3.43c1.26-2.58,3.52-3.54,6.19-3.54,2.17,0,3.41,.59,4.19,1.48Z"/><path class="c" d="M307.25,11.74c.61,.37,.95,.54,1.28,.54,.5,0,.69-.57,.85-1.67h.87c-.13,1.5-.2,3.32-.2,8.66h-.87c-.26-3.95-2.39-8.08-6.45-8.08-2.43,0-4.17,1.46-4.17,3.87,0,3.06,2.32,4.3,6.56,7.15,3.6,2.39,6.41,4.45,6.41,8.56,0,5-4.32,7.39-9.42,7.39-3.15,0-4.82-.72-6.1-1.41-.61-.39-1-.54-1.3-.54-.5,0-.69,.57-.83,1.67h-.87c.11-1.78,.15-4.21,.15-10.25h.87c.32,5.06,2.06,9.53,6.91,9.53,2.65,0,4.71-1.41,4.71-4.24,0-3.11-2.35-4.91-5.69-7.06-3.61-2.3-6.76-4.43-6.76-8.66,0-4.78,4.06-6.93,8.51-6.93,2.97,0,4.36,.76,5.54,1.46Z"/><path class="c" d="M326.21,18.02v.76h-4.49v15.31c0,1.56,.56,2.11,1.67,2.11,.93,0,1.85-.59,2.59-2.28l.63,.35c-.83,2.26-2.39,3.89-5.19,3.89-1.71,0-2.95-.43-3.8-1.28-1.09-1.11-1.37-2.65-1.37-5.3v-12.81h-3.19v-.76h3.19v-5.02c2.13-.02,3.89-.37,5.47-1.22v6.25h4.49Z"/><path class="c" d="M341.98,19.17c1.11,1.15,1.35,2.67,1.35,5.32v10.32c0,1.22,.2,1.69,.82,1.69,.54,0,.96-.32,1.39-.65l.39,.65c-1.15,.93-2.41,1.39-4.34,1.39-2.78,0-3.63-1.45-3.65-3.08-1.3,2.13-3.47,3.08-5.6,3.08-2.84,0-4.8-1.56-4.8-4.32s1.82-4.28,5.34-5.58c2.8-1.06,4.99-1.78,4.99-3.41v-2.97c0-1.98-.85-3.39-3.1-3.39-.91,0-2.02,.26-2.71,.93,1.35,.46,2.24,1.45,2.24,2.98s-1.22,2.72-3.1,2.72c-1.65,0-2.69-1.26-2.69-2.93,0-1.39,.89-2.45,2.13-3.17,1.35-.76,3.21-1.3,5.76-1.3s4.34,.44,5.56,1.71Zm-4.11,6.97c-.35,.57-1.07,1.07-2.35,1.87-1.33,.98-2.58,2.22-2.58,4.5,0,2.09,1.02,2.95,2.37,2.95,.93,0,1.76-.41,2.56-1.54v-7.78Z"/><path class="c" d="M365.29,18.95c.83,.96,1.19,2.35,1.19,4.93v10.23c0,2.11,.67,2.72,2.43,2.72v.8c-.96-.04-3.15-.15-5-.15-1.95,0-4,.11-4.93,.15v-.8c1.5,0,2.04-.61,2.04-2.72v-11.81c0-1.89-.44-3.17-2.34-3.17-2.13,0-3.76,1.89-3.76,4.39v10.58c0,2.11,.54,2.72,2.04,2.72v.8c-.89-.04-2.85-.15-4.71-.15-1.95,0-4.23,.11-5.23,.15v-.8c1.76,0,2.43-.61,2.43-2.72v-11.97c0-2.28-.59-3.35-2.43-3.35v-.8c.8,.07,1.59,.13,2.35,.13,2.11,0,3.95-.17,5.54-.54v3.43c1.26-2.58,3.52-3.54,6.19-3.54,2.17,0,3.41,.59,4.19,1.48Z"/><path class="c" d="M388.96,33.48c0,2.26,.59,3.34,2.43,3.34v.8c-.8-.07-1.59-.11-2.35-.11-2.11,0-3.95,.15-5.54,.52v-3.21c-.87,2.19-2.46,3.35-4.93,3.35-4.52,0-7.75-3.21-7.75-10.43s3.61-10.27,8.49-10.27c1.72,0,3.17,.41,4.19,1.43v-6.41c0-2.28-.59-3.35-2.43-3.35v-.8c.8,.07,1.59,.11,2.35,.11,2.13,0,3.97-.15,5.54-.52v25.56Zm-5.47-.15v-13.49c-.69-.89-1.69-1.28-2.76-1.28-2.61,0-4.19,2.98-4.17,9.25-.02,6.49,1.39,8.71,3.58,8.71,1.56,0,3-1.19,3.35-3.19Z"/></g><path class="b" d="M177.82,6.28s-.22,1.01-.71,1.87c-1.35-4.96-1.03-8.15-1.03-8.15,0,0-4.38,2.15-5.6,7.27-.32,1.33,.08,5.11,1.96,5.32,.01,0,.07-1.09,.61-1.84,.69-.94,1.17-.95,1.53-.83,.22,.07,.5,1.14,.38,1.77-.47,2.29-1.79,2.93-1.78,2.96,.14,.47,3.44-.28,4.33-2.61,1.3-2.84,.32-5.76,.32-5.76Z"/></svg>